<svg width="36" height="28" viewBox="0 0 36 28" fill="none" xmlns="http://www.w3.org/2000/svg">
<path d="M29.8535 3.12574C27.6735 2.12549 25.3358 1.3885 22.8915 0.966371C22.847 0.958221 22.8025 0.978596 22.7796 1.01928C22.4789 1.55404 22.1459 2.25161 21.9127 2.79994C19.2838 2.40633 16.6683 2.40633 14.0932 2.79994C13.86 2.23945 13.5148 1.55404 13.2128 1.01928C13.1899 0.979932 13.1454 0.959557 13.1009 0.966371C10.658 1.3871 8.32031 2.12408 6.1389 3.12574C6.11999 3.13389 6.10382 3.14745 6.09307 3.16509C1.65889 9.78969 0.444131 16.2515 1.04002 22.6331C1.04269 22.6643 1.06026 22.6942 1.08451 22.7132C4.01006 24.8617 6.84401 26.166 9.62526 27.0306C9.66975 27.0441 9.71691 27.0279 9.74524 26.9912C10.4031 26.0928 10.9896 25.1454 11.4924 24.1492C11.5221 24.0909 11.4938 24.0216 11.4331 23.9985C10.5029 23.6457 9.61711 23.2154 8.76502 22.7269C8.69762 22.6875 8.69221 22.5911 8.75427 22.545C8.93357 22.4106 9.11294 22.2708 9.28416 22.1296C9.31516 22.1039 9.35831 22.0984 9.39472 22.1147C14.9923 24.6704 21.0525 24.6704 26.584 22.1147C26.6204 22.097 26.6636 22.1025 26.6959 22.1282C26.8672 22.2694 27.0465 22.4106 27.2271 22.5449C27.2891 22.5911 27.2851 22.6875 27.2177 22.7268C26.3656 23.2249 25.4799 23.6456 24.5483 23.9971C24.4877 24.0202 24.4607 24.0908 24.4904 24.1491C25.0041 25.144 25.5905 26.0913 26.2362 26.9898C26.2632 27.0278 26.3117 27.0441 26.3562 27.0305C29.151 26.166 31.9849 24.8617 34.9105 22.7132C34.9361 22.6942 34.9523 22.6657 34.955 22.6345C35.6682 15.2566 33.7604 8.84776 29.8979 3.16642C29.8885 3.14745 29.8724 3.13389 29.8535 3.12574ZM12.3285 18.7474C10.6432 18.7474 9.25456 17.2002 9.25456 15.3C9.25456 13.3999 10.6162 11.8527 12.3285 11.8527C14.0541 11.8527 15.4293 13.4135 15.4023 15.3C15.4023 17.2002 14.0406 18.7474 12.3285 18.7474ZM23.6936 18.7474C22.0084 18.7474 20.6198 17.2002 20.6198 15.3C20.6198 13.3999 21.9814 11.8527 23.6936 11.8527C25.4193 11.8527 26.7945 13.4135 26.7675 15.3C26.7675 17.2002 25.4194 18.7474 23.6936 18.7474Z" fill="url(#paint0_radial_1411_990)" fill-opacity="0.7"/>
<defs>
<radialGradient id="paint0_radial_1411_990" cx="0" cy="0" r="1" gradientUnits="userSpaceOnUse" gradientTransform="translate(41.1671 -24.6406) rotate(111.061) scale(86.9701 58.5649)">
<stop stop-color="#D670FF"/>
<stop offset="1" stop-color="#8618B1"/>
<stop offset="1" stop-color="#8618B1"/>
</radialGradient>
</defs>
</svg>
