<svg width="34" height="28" viewBox="0 0 34 28" fill="none" xmlns="http://www.w3.org/2000/svg">
<path fill-rule="evenodd" clip-rule="evenodd" d="M33.4315 2.73353C32.9759 7.52361 31.0033 19.1474 29.9998 24.5126C29.575 26.7833 28.7384 27.5442 27.929 27.6188C26.1706 27.7809 24.8346 26.4556 23.1307 25.3385C20.4646 23.5907 18.9583 22.5033 16.3703 20.7981C13.3789 18.8267 15.3184 17.744 17.0224 15.9737C17.4685 15.5098 25.2192 8.45962 25.3695 7.82063C25.3884 7.74016 25.4062 7.44197 25.2287 7.28458C25.0512 7.1272 24.7897 7.18163 24.6015 7.22423C24.3341 7.28458 20.0741 10.0997 11.824 15.6696C10.6147 16.5003 9.52009 16.9038 8.53794 16.8837C7.45638 16.86 5.37611 16.2719 3.82951 15.769C1.93264 15.1525 0.425091 14.8259 0.556439 13.7786C0.623889 13.2331 1.3753 12.6758 2.80948 12.1054C11.6406 8.25727 17.5288 5.72142 20.4753 4.4955C28.8886 0.996535 30.6365 0.38819 31.7759 0.368073C33.2032 0.342868 33.5477 1.52098 33.4315 2.73353Z" fill="url(#paint0_radial_1411_994)" fill-opacity="0.7"/>
<defs>
<radialGradient id="paint0_radial_1411_994" cx="0" cy="0" r="1" gradientUnits="userSpaceOnUse" gradientTransform="translate(39.2867 -26.4101) rotate(109.505) scale(90.045 56.9076)">
<stop stop-color="#D670FF"/>
<stop offset="1" stop-color="#8618B1"/>
<stop offset="1" stop-color="#8618B1"/>
</radialGradient>
</defs>
</svg>
