<svg width="34" height="24" viewBox="0 0 34 24" fill="none" xmlns="http://www.w3.org/2000/svg">
<path d="M33.1795 3.88241C32.7906 2.43653 31.6506 1.29677 30.2049 0.907441C27.5639 0.184814 16.9995 0.184814 16.9995 0.184814C16.9995 0.184814 6.4355 0.184814 3.79445 0.880044C2.3766 1.26896 1.20882 2.43674 0.819902 3.88241C0.124878 6.52325 0.124878 12 0.124878 12C0.124878 12 0.124878 17.5044 0.819902 20.1176C1.20923 21.5633 2.34879 22.703 3.79466 23.0924C6.46331 23.8152 16.9999 23.8152 16.9999 23.8152C16.9999 23.8152 27.5639 23.8152 30.2049 23.12C31.6508 22.7309 32.7906 21.5911 33.1799 20.1454C33.8747 17.5044 33.8747 12.0278 33.8747 12.0278C33.8747 12.0278 33.9025 6.52325 33.1795 3.88241ZM13.636 17.0596V6.94039L22.4208 12L13.636 17.0596Z" fill="url(#paint0_radial_1411_987)" fill-opacity="0.7"/>
<defs>
<radialGradient id="paint0_radial_1411_987" cx="0" cy="0" r="1" gradientUnits="userSpaceOnUse" gradientTransform="translate(39.8593 -23.0236) rotate(112.744) scale(79.7661 57.1096)">
<stop stop-color="#D670FF"/>
<stop offset="1" stop-color="#8618B1"/>
<stop offset="1" stop-color="#8618B1"/>
</radialGradient>
</defs>
</svg>
