<svg width="84" height="84" viewBox="0 0 84 84" fill="none" xmlns="http://www.w3.org/2000/svg">
<g clip-path="url(#clip0_36_611)">
<path d="M84.0001 22.3944C84.0028 19.3391 83.7056 16.3288 82.9804 13.3608C82.6137 11.857 82.0915 10.4078 81.3827 9.03081C79.729 5.8133 77.2043 3.53787 73.8821 2.13362C71.8809 1.28835 69.7897 0.789361 67.6439 0.477154C65.8704 0.218118 64.0886 0.0245221 62.3041 0.0204321C50.1972 -0.00819824 38.0903 0.00407191 25.9847 -1.81418e-05C23.1915 -0.00138149 20.4009 -0.010925 17.6158 0.313552C15.132 0.602582 12.6986 1.07975 10.377 2.02592C7.39835 3.23794 4.97588 5.13436 3.2691 7.89241C2.04491 9.86927 1.29377 12.0247 0.809821 14.292C0.256346 16.8864 0.00414675 19.5041 0.00550999 22.1544C0.0136894 35.0612 0.0150527 47.9681 5.7039e-05 60.8749C-0.00266944 63.3003 0.091394 65.7107 0.488096 68.1102C0.81391 70.0857 1.28286 72.0135 2.06127 73.8622C3.89892 78.2249 7.15433 81.0252 11.6039 82.4949C13.0135 82.9612 14.4572 83.2884 15.9281 83.5242C17.3145 83.7464 18.7078 83.9591 20.1037 83.9673C27.4039 84.0028 34.704 83.9837 42.0028 83.9837V83.9946C48.3391 83.9946 54.6741 83.9837 61.0091 84C63.392 84.0068 65.7599 83.906 68.117 83.5147C70.1741 83.1711 72.1781 82.6721 74.0893 81.835C77.7687 80.2235 80.3793 77.5527 81.9389 73.8553C82.7227 71.9944 83.2135 70.0571 83.5175 68.0611C83.8229 66.0447 84.0001 64.0242 83.9987 61.9819C83.9878 48.7861 83.981 35.5902 83.9987 22.3957L84.0001 22.3944ZM24.3298 34.8308C24.8096 34.0742 25.3713 33.3775 26.0011 32.7367C26.3433 32.3877 26.3719 32.3918 26.6841 32.7885C28.5381 35.1512 30.2653 37.6052 31.9053 40.1206C34.216 43.664 36.3099 47.3314 38.1571 51.1392C38.3493 51.5346 38.5443 51.9313 38.7174 52.3362C38.7746 52.4739 38.9723 52.6294 38.8155 52.7711C38.6942 52.8816 38.5306 52.7357 38.4011 52.6689C37.5055 52.2122 36.6071 51.7609 35.7224 51.2865C33.0027 49.8304 30.3185 48.3157 27.7897 46.5393C26.6391 45.7308 25.5349 44.8692 24.552 43.8548C23.3564 42.6196 22.7266 41.1636 22.7252 39.1254C22.7062 37.7061 23.4382 36.2364 24.3311 34.8281L24.3298 34.8308ZM37.7468 47.3246C36.3699 45.1009 35.0653 42.8337 33.9256 40.4751C33.0477 38.6605 32.2788 36.805 31.8835 34.8227C31.4213 32.5022 31.784 30.3468 33.4457 28.5553C34.2773 27.6596 35.3229 27.0761 36.5212 26.7953C37.0297 26.6753 37.5423 26.5689 38.0549 26.4749C38.6928 26.359 38.8483 26.4517 39.1223 27.0352C39.9961 28.8989 40.4378 30.8853 40.7486 32.9031C41.1862 35.7497 41.3566 38.6169 41.3389 41.6435C41.3634 43.7826 41.2094 46.0607 41.0826 48.3416C41.0308 49.2742 40.9204 50.2026 40.8345 51.1338C40.829 51.1883 40.825 51.2442 40.8086 51.296C40.7718 51.4078 40.795 51.5782 40.6477 51.6028C40.5046 51.6273 40.4501 51.4732 40.3846 51.3737C39.5026 50.0267 38.5947 48.6947 37.7468 47.3246ZM42.7512 40.7737C42.8112 37.6789 43.002 34.5895 43.5978 31.5438C43.9127 29.935 44.3421 28.3536 45.0769 26.8743C45.2091 26.6085 45.37 26.4094 45.7053 26.4503C47.453 26.6589 49.1393 27.0407 50.4385 28.3413C51.7404 29.646 52.4984 31.1893 52.3416 32.9276C52.3907 34.9781 51.7868 36.7177 51.0929 38.4314C49.9328 41.2999 48.3977 43.9748 46.7973 46.6115C45.8539 48.1644 44.882 49.7009 43.8473 51.1951C43.7368 51.356 43.6537 51.6409 43.4287 51.585C43.2352 51.5359 43.2829 51.2456 43.2706 51.0697C43.1793 49.8359 43.0525 48.6061 42.9816 47.3709C42.8562 45.1732 42.7103 42.9768 42.7526 40.775L42.7512 40.7737ZM45.4 52.3212C47.0631 48.7615 48.9512 45.3273 51.0274 41.9925C52.9728 38.8691 55.0585 35.8465 57.3188 32.944C57.7864 32.3441 57.7959 32.3304 58.2989 32.8922C59.5886 34.3305 60.6832 35.8915 61.1713 37.7961C61.3131 38.3496 61.4726 38.9127 61.418 39.5058C61.3417 41.5031 60.4788 43.1145 59.001 44.4288C56.3591 46.7806 53.3245 48.542 50.2613 50.2639C48.774 51.101 47.2649 51.9 45.7381 52.6621C45.6099 52.7262 45.4613 52.8816 45.325 52.7643C45.1573 52.6185 45.3345 52.4589 45.3986 52.3226L45.4 52.3212ZM19.7193 44.3279C19.7956 44.0034 19.9211 43.9694 20.2046 44.1234C23.5186 45.923 26.8204 47.7458 30.084 49.6382C32.4778 51.0261 34.8608 52.4303 37.1715 53.9545C37.2519 54.0077 37.3364 54.0554 37.4114 54.1168C37.5218 54.2081 37.7481 54.2517 37.6977 54.4222C37.6404 54.6171 37.4155 54.5435 37.2601 54.5435C36.4067 54.5517 35.5519 54.549 34.6986 54.5503H32.2611C30.7193 54.5517 29.1761 54.5558 27.6343 54.5503C23.6454 54.5367 20.2796 51.6927 19.5762 47.7649C19.3689 46.6034 19.4494 45.465 19.7207 44.3279H19.7193ZM23.381 74.4716C22.1868 74.447 22.3476 74.5766 22.3381 73.4368C22.3326 72.7619 22.3285 72.0884 22.3394 71.4136C22.3449 71.0823 22.2045 70.9296 21.8759 70.931C20.8303 70.9337 19.7847 70.9351 18.7378 70.931C18.3779 70.9296 18.262 71.1082 18.2661 71.449C18.2784 72.3025 18.2593 73.1559 18.2756 74.0094C18.2811 74.3502 18.1502 74.4757 17.8149 74.4702C16.5089 74.4484 16.7215 74.6243 16.7161 73.3864C16.7052 71.1423 16.7134 68.8982 16.7134 66.6541C16.7134 66.0488 16.7134 66.0434 17.3009 66.0474C18.416 66.0543 18.2606 65.9247 18.2715 67.01C18.277 67.6712 18.2838 68.3324 18.2688 68.9923C18.2606 69.3522 18.3792 69.524 18.765 69.5199C19.797 69.5063 20.829 69.509 21.8623 69.5199C22.2236 69.5226 22.3476 69.3645 22.3435 69.0195C22.3313 68.1797 22.3503 67.3385 22.334 66.5001C22.3272 66.1592 22.454 66.0365 22.792 66.0434C24.0926 66.0693 23.8854 65.8893 23.8976 67.1258C23.9072 68.1729 23.899 69.2186 23.899 70.2656C23.899 71.4899 23.8881 72.7169 23.9044 73.9412C23.9099 74.3312 23.7831 74.4825 23.3823 74.4743L23.381 74.4716ZM23.8295 56.5435C23.6291 56.2136 23.6686 56.1441 24.0503 56.1332C24.2848 56.1264 24.5179 56.1318 24.7524 56.1318C24.7524 56.125 24.7524 56.1195 24.7524 56.1127C27.2825 56.0336 29.8127 55.9696 32.3415 55.8687C33.9351 55.8046 35.5288 55.7228 37.1265 55.7173C37.2424 55.7173 37.4046 55.6669 37.4523 55.8155C37.4932 55.9396 37.3528 55.9955 37.2642 56.0568C35.4306 57.3275 33.5752 58.5558 31.6013 59.6097C29.3124 60.8313 27.3521 60.2246 25.6739 58.7576C24.9446 58.1196 24.3325 57.3738 23.8295 56.5435ZM33.7552 68.965H33.7375C33.7375 69.7639 33.747 70.5615 33.7361 71.3604C33.7143 72.8315 32.8786 74.068 31.4445 74.3652C30.0731 74.6475 28.6308 74.7511 27.5061 73.5799C26.9513 73.0005 26.6514 72.2834 26.6364 71.4927C26.6037 69.828 26.6309 68.162 26.6186 66.4973C26.6159 66.1551 26.7454 66.0352 27.0808 66.042C28.3895 66.0679 28.1686 65.8852 28.1809 67.1245C28.1945 68.4319 28.1986 69.7394 28.1836 71.0468C28.1632 72.7006 29.7146 73.5131 31.1419 72.8928C32.0675 72.4906 32.2243 71.6317 32.2352 70.7496C32.2556 69.3195 32.2488 67.888 32.2297 66.4565C32.227 66.1483 32.3102 66.0256 32.6196 66.0434C32.8936 66.0597 33.1704 66.0502 33.4457 66.0474C33.6939 66.0447 33.7661 66.1551 33.762 66.4074C33.7443 67.2608 33.7552 68.1129 33.7552 68.9664V68.965ZM43.2324 74.3993C43.0947 74.3925 42.9571 74.3993 42.8194 74.3993C42.0164 74.3816 42.0791 74.552 41.6947 73.6304C41.1794 72.3952 41.4139 72.597 40.1311 72.582C39.3336 72.5724 38.5347 72.5888 37.7372 72.5765C37.406 72.5711 37.1906 72.6951 37.0692 73.0073C36.9302 73.3673 36.7707 73.7176 36.6153 74.0708C36.5607 74.1962 36.5158 74.3789 36.3767 74.387C35.9268 74.417 35.4715 74.4348 35.023 74.3993C34.8308 74.3843 34.9617 74.1989 35.0039 74.1021C35.4524 73.0823 35.9078 72.0653 36.3576 71.0455C37.0297 69.524 37.7086 68.0025 38.3643 66.4742C38.4979 66.1647 38.6765 66.0665 39.0091 66.0297C39.7248 65.9493 40.0915 66.1838 40.3819 66.8873C41.3675 69.2772 42.4418 71.6304 43.4955 73.9917C43.6428 74.3202 43.561 74.417 43.2297 74.398L43.2324 74.3993ZM55.6175 66.4483C54.9945 68.2138 54.3878 69.9848 53.7757 71.7531C53.5222 72.4811 53.2591 73.2064 53.0232 73.9399C52.9196 74.2644 52.7492 74.4089 52.3975 74.398C51.356 74.368 51.5618 74.5152 51.2346 73.569C50.7302 72.113 50.1863 70.6706 49.7433 69.1954C49.7105 69.0863 49.6642 68.9759 49.5306 68.9746C49.3466 68.9746 49.3316 69.1382 49.2879 69.2636C48.7563 70.7987 48.2123 72.3298 47.7052 73.8731C47.5743 74.2698 47.3862 74.417 46.9691 74.4034C46.177 74.3761 46.1825 74.3966 45.9276 73.6658C45.1055 71.3154 44.2794 68.965 43.4533 66.616C43.426 66.5382 43.4137 66.4537 43.3769 66.3801C43.2393 66.1006 43.3783 66.0406 43.625 66.0515C43.79 66.057 43.9563 66.0515 44.1213 66.0515C44.2317 66.0515 44.3435 66.0665 44.4512 66.0488C44.8506 65.9847 45.0115 66.2056 45.1178 66.5492C45.6236 68.1784 46.1416 69.8035 46.6555 71.4299C46.6937 71.5486 46.7278 71.6835 46.8832 71.6849C47.0386 71.6849 47.0727 71.5527 47.1122 71.4313C47.663 69.7598 48.2192 68.0884 48.7617 66.4128C48.8422 66.1661 48.9608 66.0543 49.2252 66.0434C50.1372 66.0038 50.155 65.9902 50.4494 66.8436C50.9688 68.3529 51.4637 69.8703 51.9694 71.3836C52.0103 71.5063 52.0008 71.6917 52.1903 71.6808C52.3566 71.6699 52.3757 71.5077 52.4179 71.3754C52.9469 69.723 53.4813 68.0734 54.0061 66.421C54.0893 66.1592 54.2324 66.0311 54.5132 66.0488C54.7886 66.0638 55.064 66.0583 55.3394 66.0502C55.6474 66.0406 55.7211 66.1456 55.6147 66.4496L55.6175 66.4483ZM52.9169 59.8156C50.7493 58.7672 48.7972 57.3779 46.8068 56.0445C46.7223 55.9873 46.5887 55.9328 46.646 55.7964C46.6896 55.6887 46.8123 55.7214 46.905 55.7201C47.1531 55.7146 47.4012 55.7187 47.6493 55.7187C47.6493 55.7242 47.6493 55.7282 47.6493 55.7337C50.3036 55.8141 52.9564 55.8755 55.6093 55.9805C57.0529 56.0364 58.4939 56.1291 59.9389 56.1345C60.4638 56.1359 60.5006 56.1945 60.2211 56.6308C59.3841 57.9328 58.3903 59.0712 56.9643 59.7706C55.6188 60.4304 54.2897 60.4809 52.9196 59.8183L52.9169 59.8156ZM63.2339 74.4034C61.4712 74.387 59.7085 74.3898 57.9459 74.4034C57.5901 74.4061 57.4578 74.2903 57.4619 73.9276C57.4783 72.6883 57.4687 71.449 57.4687 70.2084C57.4687 68.9964 57.4796 67.7843 57.4619 66.571C57.4565 66.1892 57.5601 66.0324 57.9704 66.0365C59.6785 66.0543 61.3867 66.0502 63.0935 66.0393C63.4424 66.0365 63.5897 66.1456 63.5829 66.5123C63.5638 67.5771 63.6633 67.4394 62.6518 67.4449C61.6184 67.4503 60.5851 67.4571 59.5531 67.4394C59.1551 67.4326 58.9983 67.5826 59.0256 67.9739C59.0433 68.2356 59.0269 68.4974 59.0283 68.7591C59.031 69.314 59.0692 69.3549 59.609 69.3563C60.3261 69.359 61.0418 69.3658 61.7575 69.3536C62.0887 69.3481 62.2592 69.4381 62.1814 69.8062C62.1528 69.9384 62.1705 70.0816 62.1746 70.2193C62.191 70.7483 62.1924 70.7496 61.6784 70.751C60.9613 70.7537 60.2456 70.7646 59.5299 70.7469C59.151 70.7374 59.0092 70.8955 59.0256 71.2636C59.0433 71.6617 59.0255 72.0625 59.031 72.462C59.0351 72.9883 59.1087 73.066 59.6267 73.0673C60.7978 73.0714 61.9688 73.0673 63.1398 73.0687C63.7355 73.0687 63.741 73.0769 63.7437 73.6658C63.7437 73.7354 63.7369 73.8049 63.7437 73.8731C63.7887 74.2589 63.6401 74.4102 63.2352 74.4061L63.2339 74.4034ZM64.5262 47.7786C63.9223 50.902 62.101 53.0111 59.106 54.1004C58.0113 54.4985 56.8648 54.5135 55.7265 54.5353C54.2815 54.5653 52.8351 54.5421 51.3887 54.5421V54.5449C49.8605 54.5449 48.3323 54.5462 46.8041 54.5421C46.6623 54.5421 46.4538 54.6103 46.4047 54.4303C46.3597 54.2613 46.5628 54.1945 46.6828 54.114C48.9171 52.6525 51.2006 51.2701 53.5072 49.9245C56.539 48.1562 59.6049 46.4507 62.6804 44.7615C63.0907 44.5365 63.5106 44.3279 63.9114 44.0866C64.2004 43.9121 64.319 43.9953 64.3967 44.2979C64.6966 45.45 64.7471 46.6211 64.5235 47.7772L64.5262 47.7786ZM67.4504 67.1654C67.464 69.3945 67.4558 71.6249 67.4531 73.854C67.4531 74.3761 67.4326 74.3925 66.9255 74.398C66.2821 74.4034 65.9608 74.0853 65.9617 73.4436V70.2234H65.9385C65.9385 68.9296 65.9426 67.6357 65.9344 66.3433C65.9331 66.1524 65.9862 66.0543 66.1812 66.0515C66.2085 66.0515 66.2357 66.0488 66.2643 66.0488C67.693 66.0624 67.4435 65.8757 67.4517 67.1668L67.4504 67.1654ZM40.5182 70.7837C40.6436 71.0714 40.5618 71.2418 40.2319 71.2473C39.9007 71.2527 39.5708 71.2486 39.2395 71.2486C38.9232 71.2486 38.607 71.2513 38.2893 71.2486C37.9894 71.2459 37.8817 71.1027 38.0003 70.8232C38.3398 70.0257 38.6847 69.2295 39.0296 68.4347C39.0732 68.3351 39.1195 68.222 39.2572 68.2288C39.3854 68.2356 39.4413 68.3365 39.4876 68.4401C39.8312 69.2213 40.1747 70.0012 40.5155 70.7837H40.5182Z" fill="url(#paint0_linear_36_611)"/>
<path d="M37.6975 54.4221C37.6402 54.6171 37.4153 54.5435 37.2599 54.5435C36.4065 54.5517 35.5517 54.5489 34.6983 54.5503H32.2609C30.719 54.5517 29.1759 54.5557 27.634 54.5503C23.6452 54.5367 20.2794 51.6927 19.5759 47.7649C19.3687 46.6033 19.4491 45.4649 19.7204 44.3279C19.7968 44.0034 19.9222 43.9694 20.2057 44.1234C23.5198 45.923 26.8215 47.7458 30.0851 49.6381C32.479 51.026 34.8619 52.4303 37.1726 53.9545C37.253 54.0077 37.3376 54.0554 37.4125 54.1167C37.523 54.2081 37.7493 54.2517 37.6988 54.4221H37.6975Z" fill="white"/>
<path d="M23.9028 73.9372C23.9082 74.3271 23.7815 74.4784 23.3807 74.4702C22.1865 74.4457 22.3473 74.5752 22.3378 73.4354C22.3323 72.7606 22.3283 72.0871 22.3392 71.4122C22.3446 71.0809 22.2042 70.9282 21.8757 70.9296C20.8301 70.9323 19.7845 70.9337 18.7375 70.9296C18.3776 70.9282 18.2617 71.1068 18.2658 71.4477C18.2781 72.3011 18.259 73.1546 18.2754 74.0081C18.2808 74.3489 18.1499 74.4743 17.8146 74.4689C16.5086 74.447 16.7213 74.6229 16.7158 73.385C16.7049 71.1409 16.7131 68.8968 16.7131 66.6527C16.7131 66.0474 16.7131 66.042 17.3006 66.0461C18.4158 66.0529 18.2604 65.9233 18.2713 67.0086C18.2767 67.6698 18.2835 68.331 18.2685 68.9909C18.2604 69.3508 18.379 69.5226 18.7648 69.5185C19.7967 69.5049 20.8287 69.5076 21.862 69.5185C22.2233 69.5212 22.3473 69.3631 22.3432 69.0182C22.331 68.1783 22.3501 67.3372 22.3337 66.4987C22.3269 66.1578 22.4537 66.0351 22.7918 66.042C24.0923 66.0679 23.8851 65.8879 23.8973 67.1245C23.9069 68.1715 23.8987 69.2172 23.8987 70.2643C23.8987 71.4886 23.8878 72.7156 23.9042 73.9399L23.9028 73.9372Z" fill="white"/>
<path d="M38.8172 52.7712C38.6959 52.8816 38.5323 52.7357 38.4028 52.6689C37.5071 52.2122 36.6088 51.7609 35.724 51.2865C33.0044 49.8304 30.3202 48.3157 27.7914 46.5393C26.6408 45.7308 25.5366 44.8692 24.5537 43.8548C23.3581 42.6196 22.7283 41.1636 22.7269 39.1254C22.7078 37.7061 23.4399 36.2364 24.3328 34.8281C24.8127 34.0714 25.3743 33.3748 26.0041 32.734C26.3463 32.385 26.3749 32.3891 26.6871 32.7858C28.5411 35.1485 30.2684 37.6025 31.9083 40.1179C34.219 43.6612 36.3129 47.3287 38.1601 51.1365C38.3523 51.5319 38.5473 51.9286 38.7204 52.3335C38.7777 52.4712 38.9753 52.6266 38.8186 52.7684L38.8172 52.7712Z" fill="white"/>
<path d="M33.7547 68.965H33.737C33.737 69.7639 33.7466 70.5615 33.7357 71.3604C33.7138 72.8314 32.8782 74.068 31.4441 74.3652C30.0726 74.6474 28.6303 74.751 27.5057 73.5799C26.9508 73.0005 26.6509 72.2834 26.6359 71.4926C26.6032 69.828 26.6305 68.162 26.6182 66.4973C26.6155 66.1551 26.745 66.0352 27.0803 66.042C28.389 66.0679 28.1682 65.8852 28.1805 67.1245C28.1941 68.4319 28.1982 69.7394 28.1832 71.0468C28.1628 72.7006 29.7141 73.5131 31.1414 72.8928C32.0671 72.4906 32.2238 71.6317 32.2347 70.7496C32.2552 69.3195 32.2484 67.888 32.2293 66.4564C32.2266 66.1483 32.3097 66.0256 32.6192 66.0434C32.8932 66.0597 33.1699 66.0502 33.4453 66.0474C33.6934 66.0447 33.7656 66.1551 33.7616 66.4074C33.7438 67.2608 33.7547 68.1129 33.7547 68.9664V68.965Z" fill="white"/>
<path d="M52.3416 32.9262C52.3906 34.9767 51.7867 36.7163 51.0928 38.4301C49.9327 41.2986 48.3977 43.9734 46.7973 46.6102C45.8539 48.163 44.8819 49.6995 43.8472 51.1937C43.7368 51.3546 43.6537 51.6395 43.4287 51.5836C43.2352 51.5346 43.2829 51.2442 43.2706 51.0683C43.1793 49.8345 43.0525 48.6047 42.9816 47.3695C42.8562 45.1718 42.7103 42.9755 42.7526 40.7737C42.8125 37.6789 43.0034 34.5895 43.5991 31.5438C43.914 29.9351 44.3435 28.3536 45.0782 26.8743C45.2105 26.6085 45.3713 26.4094 45.7067 26.4503C47.4544 26.6589 49.1407 27.0407 50.4399 28.3413C51.7417 29.646 52.4997 31.1893 52.3429 32.9276L52.3416 32.9262Z" fill="white"/>
<path d="M61.4181 39.503C61.3417 41.5003 60.4788 43.1118 59.0011 44.4261C56.3591 46.7778 53.3245 48.5393 50.2613 50.2612C48.774 51.0983 47.2649 51.8972 45.7381 52.6593C45.61 52.7234 45.4614 52.8788 45.3251 52.7616C45.1574 52.6157 45.3346 52.4562 45.3987 52.3199C47.0618 48.7602 48.9499 45.3259 51.0261 41.9911C52.9715 38.8677 55.0572 35.8452 57.3175 32.9426C57.7851 32.3427 57.7946 32.3291 58.2976 32.8908C59.5873 34.3291 60.6819 35.8901 61.17 37.7947C61.3117 38.3483 61.4712 38.9113 61.4167 39.5044L61.4181 39.503Z" fill="white"/>
<path d="M41.0822 48.3403C41.0304 49.2728 40.92 50.2012 40.8341 51.1324C40.8287 51.1869 40.8246 51.2428 40.8082 51.2946C40.7714 51.4064 40.7946 51.5768 40.6474 51.6014C40.5042 51.6259 40.4497 51.4719 40.3843 51.3723C39.5022 50.0254 38.5943 48.6934 37.7464 47.3232C36.3695 45.0996 35.0649 42.8323 33.9252 40.4737C33.0473 38.6591 32.2785 36.8036 31.8831 34.8213C31.421 32.5009 31.7836 30.3454 33.4454 28.554C34.277 27.6583 35.3226 27.0748 36.5208 26.7939C37.0293 26.6739 37.5419 26.5676 38.0545 26.4735C38.6925 26.3576 38.8479 26.4503 39.1219 27.0339C39.9957 28.8975 40.4374 30.8839 40.7482 32.9017C41.1858 35.7484 41.3562 38.6155 41.3385 41.6421C41.3631 43.7812 41.209 46.0594 41.0822 48.3403Z" fill="white"/>
<path d="M37.2655 56.0541C35.432 57.3247 33.5766 58.5531 31.6027 59.607C29.3138 60.8285 27.3534 60.2218 25.6753 58.7549C24.946 58.1168 24.3339 57.3711 23.8308 56.5408C23.6305 56.2109 23.67 56.1413 24.0517 56.1304C24.2862 56.1236 24.5193 56.1291 24.7538 56.1291C24.7538 56.1222 24.7538 56.1168 24.7538 56.11C27.2839 56.0309 29.8141 55.9668 32.3429 55.8659C33.9365 55.8018 35.5301 55.72 37.1279 55.7146C37.2437 55.7146 37.406 55.6641 37.4537 55.8128C37.4946 55.9368 37.3541 55.9927 37.2655 56.0541Z" fill="white"/>
<path d="M64.5264 47.7772C63.9224 50.9006 62.1012 53.0097 59.1061 54.099C58.0114 54.4971 56.865 54.5121 55.7267 54.5339C54.2816 54.5639 52.8352 54.5407 51.3888 54.5407V54.5435C49.8606 54.5435 48.3324 54.5448 46.8043 54.5407C46.6625 54.5407 46.4539 54.6089 46.4048 54.429C46.3598 54.2599 46.563 54.1931 46.6829 54.1127C48.9173 52.6512 51.2007 51.2687 53.5073 49.9231C56.5391 48.1548 59.6051 46.4493 62.6805 44.7601C63.0909 44.5352 63.5108 44.3266 63.9115 44.0853C64.2006 43.9107 64.3192 43.9939 64.3969 44.2966C64.6968 45.4486 64.7472 46.6197 64.5236 47.7758L64.5264 47.7772Z" fill="white"/>
<path d="M63.2341 74.402C61.4714 74.3856 59.7087 74.3884 57.9461 74.402C57.5903 74.4047 57.458 74.2888 57.4621 73.9262C57.4785 72.6869 57.4689 71.4476 57.4689 70.207C57.4689 68.995 57.4798 67.783 57.4621 66.5696C57.4567 66.1879 57.5603 66.0311 57.9706 66.0352C59.6787 66.0529 61.3869 66.0488 63.0937 66.0379C63.4426 66.0352 63.5899 66.1442 63.5831 66.511C63.564 67.5757 63.6635 67.438 62.652 67.4435C61.6186 67.449 60.5853 67.4558 59.5533 67.438C59.1553 67.4312 58.9985 67.5812 59.0258 67.9725C59.0435 68.2342 59.0271 68.496 59.0285 68.7578C59.0312 69.3126 59.0694 69.3535 59.6092 69.3549C60.3263 69.3576 61.042 69.3644 61.7577 69.3522C62.0889 69.3467 62.2594 69.4367 62.1817 69.8048C62.153 69.9371 62.1707 70.0802 62.1748 70.2179C62.1912 70.7469 62.1926 70.7482 61.6786 70.7496C60.9616 70.7523 60.2458 70.7632 59.5301 70.7455C59.1512 70.736 59.0094 70.8941 59.0258 71.2622C59.0435 71.6603 59.0257 72.0611 59.0312 72.4606C59.0353 72.9868 59.1089 73.0646 59.6269 73.0659C60.798 73.07 61.969 73.0659 63.14 73.0673C63.7357 73.0673 63.7412 73.0755 63.7439 73.6644C63.7439 73.734 63.7371 73.8035 63.7439 73.8717C63.7889 74.2575 63.6403 74.4088 63.2354 74.4047L63.2341 74.402Z" fill="white"/>
<path d="M67.4506 67.164C67.4642 69.3931 67.456 71.6235 67.4533 73.8526C67.4533 74.3748 67.4328 74.3911 66.9257 74.3966C66.2822 74.402 65.9609 74.0839 65.9619 73.4422V70.222H65.9387C65.9387 68.9282 65.9428 67.6344 65.9346 66.3419C65.9332 66.151 65.9864 66.0529 66.1813 66.0501C66.2086 66.0501 66.2359 66.0474 66.2645 66.0474C67.6932 66.061 67.4437 65.8743 67.4519 67.1654L67.4506 67.164Z" fill="white"/>
<path d="M60.2181 56.6281C59.381 57.9301 58.3872 59.0685 56.9613 59.7679C55.6158 60.4277 54.2866 60.4782 52.9166 59.8156C50.749 58.7672 48.7969 57.3779 46.8065 56.0445C46.722 55.9873 46.5884 55.9328 46.6457 55.7964C46.6893 55.6887 46.812 55.7214 46.9047 55.7201C47.1528 55.7146 47.4009 55.7187 47.649 55.7187C47.649 55.7242 47.649 55.7283 47.649 55.7337C50.3032 55.8141 52.9561 55.8755 55.609 55.9805C57.0526 56.0364 58.4936 56.1291 59.9386 56.1345C60.4635 56.1359 60.5003 56.1945 60.2208 56.6308L60.2181 56.6281Z" fill="white"/>
<path d="M43.4986 73.9916C42.4449 71.6303 41.3706 69.2758 40.385 66.8872C40.0946 66.1824 39.7279 65.9493 39.0122 66.0297C38.6783 66.0665 38.4997 66.1647 38.3674 66.4741C37.7117 68.0025 37.0342 69.5226 36.3608 71.0454C35.9109 72.0652 35.4556 73.0823 35.0071 74.1021C34.9634 74.2002 34.8339 74.3843 35.0261 74.3993C35.4747 74.4347 35.93 74.417 36.3798 74.387C36.5189 74.3775 36.5639 74.1961 36.6184 74.0707C36.7724 73.719 36.9319 73.3672 37.0724 73.0073C37.1937 72.6937 37.4091 72.571 37.7403 72.5765C38.5392 72.5874 39.3367 72.571 40.1342 72.5819C41.4184 72.5969 41.1825 72.3952 41.6978 73.6304C42.0809 74.5506 42.0195 74.3816 42.8225 74.3993C42.9602 74.3993 43.0979 74.3925 43.2355 74.3993C43.5668 74.4197 43.6486 74.3229 43.5014 73.993L43.4986 73.9916ZM40.2337 71.2445C39.9024 71.2499 39.5725 71.2459 39.2413 71.2459C38.925 71.2459 38.6087 71.2486 38.2911 71.2459C37.9912 71.2431 37.8835 71.1 38.0021 70.8205C38.3415 70.0229 38.6864 69.2267 39.0313 68.4319C39.075 68.3324 39.1213 68.2192 39.259 68.226C39.3871 68.2329 39.443 68.3337 39.4894 68.4374C39.8329 69.2186 40.1764 69.9984 40.5173 70.781C40.6427 71.0686 40.5609 71.239 40.231 71.2445H40.2337Z" fill="white"/>
<path d="M55.6171 66.4469C54.9941 68.2124 54.3875 69.9834 53.7754 71.7517C53.5218 72.4797 53.2587 73.205 53.0229 73.9385C52.9193 74.263 52.7489 74.4075 52.3971 74.3966C51.3556 74.3666 51.5615 74.5138 51.2343 73.5677C50.7299 72.1116 50.186 70.6692 49.7429 69.194C49.7102 69.085 49.6638 68.9745 49.5303 68.9732C49.3462 68.9732 49.3312 69.1368 49.2876 69.2622C48.7559 70.7973 48.212 72.3284 47.7049 73.8717C47.574 74.2684 47.3859 74.4157 46.9687 74.402C46.1767 74.3748 46.1821 74.3952 45.9272 73.6645C45.1052 71.314 44.2791 68.9636 43.4529 66.6146C43.4257 66.5369 43.4134 66.4523 43.3766 66.3787C43.2389 66.0992 43.378 66.0392 43.6247 66.0501C43.7897 66.0556 43.956 66.0501 44.1209 66.0501C44.2313 66.0501 44.3431 66.0651 44.4508 66.0474C44.8503 65.9833 45.0111 66.2042 45.1175 66.5478C45.6232 68.177 46.1412 69.8021 46.6552 71.4286C46.6934 71.5472 46.7274 71.6821 46.8828 71.6835C47.0383 71.6835 47.0723 71.5513 47.1119 71.4299C47.6626 69.7585 48.2188 68.087 48.7614 66.4114C48.8418 66.1647 48.9604 66.0529 49.2249 66.042C50.1369 66.0024 50.1546 65.9888 50.4491 66.8422C50.9685 68.3515 51.4633 69.8689 51.9691 71.3822C52.01 71.5049 52.0004 71.6903 52.1899 71.6794C52.3562 71.6685 52.3753 71.5063 52.4176 71.374C52.9465 69.7216 53.4809 68.072 54.0058 66.4196C54.0889 66.1578 54.2321 66.0297 54.5129 66.0474C54.7883 66.0624 55.0636 66.057 55.339 66.0488C55.6471 66.0392 55.7207 66.1442 55.6144 66.4482L55.6171 66.4469Z" fill="white"/>
<path d="M62.7893 10.2537C62.3695 10.7923 61.9564 11.3362 61.5284 11.8693C58.3288 15.8612 54.2677 18.6043 49.4064 20.1503C45.8402 21.2846 42.1881 21.56 38.4746 21.0692C34.554 20.5511 30.9768 19.1482 27.6982 16.9601C26.1032 15.8953 24.6446 14.6628 23.3699 13.2286C22.6161 12.3792 21.854 11.5326 21.2188 10.585C21.1397 10.4664 21.0893 10.3069 20.9284 10.2537C20.6148 9.72613 20.2958 9.2026 19.9918 8.66953C19.6674 8.10102 19.8024 7.54477 20.319 7.25029C20.788 6.98307 21.3237 7.15213 21.6495 7.67702C21.9535 8.16373 22.2235 8.6709 22.5888 9.11671C23.1873 10.1283 23.9507 11.0131 24.7455 11.868C27.84 15.1986 31.5821 17.4672 35.9813 18.6233C38.7909 19.3609 41.6469 19.5463 44.5356 19.2069C50.2516 18.5347 55.038 16.0357 58.975 11.868C59.7043 11.0963 60.3614 10.2674 60.9694 9.39756C61.0294 9.31031 61.1303 9.24078 61.1139 9.11262C61.4793 8.68317 61.7601 8.19918 62.045 7.71655C62.2195 7.42207 62.4485 7.19166 62.8071 7.14531C63.197 7.09487 63.5132 7.23257 63.7354 7.55432C63.959 7.87607 63.9822 8.22508 63.7886 8.56592C63.4642 9.13444 63.122 9.69341 62.788 10.2565L62.7893 10.2537Z" fill="#FEFEFE"/>
<path d="M62.7898 10.2538C63.1238 9.69069 63.4646 9.13172 63.7904 8.5632C63.9854 8.22237 63.9609 7.87335 63.7373 7.5516C63.5151 7.23121 63.1988 7.09215 62.8089 7.14259C62.4504 7.18895 62.2214 7.41935 62.0469 7.71384C61.762 8.19646 61.4798 8.68045 61.1158 9.10991C60.8704 8.97357 60.7832 8.7159 60.7368 8.48276C60.4451 6.99671 61.2562 5.73971 62.6794 5.46567C64.2049 5.17255 65.5545 6.3723 65.5545 7.84608C65.5545 9.20534 64.5716 10.1392 63.3133 10.3451C63.1279 10.3751 62.9657 10.2715 62.7898 10.2524V10.2538Z" fill="#D4313E"/>
<path d="M22.5905 9.11535C22.2252 8.66953 21.9552 8.16237 21.6512 7.67565C21.3241 7.15213 20.7897 6.98171 20.3207 7.24892C19.804 7.54341 19.6704 8.09965 19.9935 8.66817C20.2975 9.20124 20.6165 9.72477 20.9301 10.2524C19.4905 10.4337 18.404 9.478 18.1613 8.14874C17.9623 7.05942 19.0025 5.60609 20.1053 5.47521C21.5026 5.30888 22.4378 5.86104 22.9408 7.14531C23.1753 7.74518 22.9886 8.79496 22.5891 9.11671L22.5905 9.11535Z" fill="#D4313E"/>
</g>
<defs>
<linearGradient id="paint0_linear_36_611" x1="42.0001" y1="84" x2="42.0001" y2="-1.52586e-05" gradientUnits="userSpaceOnUse">
<stop offset="0.44" stop-color="#D4313E"/>
<stop offset="0.57" stop-color="#E2455C"/>
</linearGradient>
<clipPath id="clip0_36_611">
<rect width="84" height="84" fill="white"/>
</clipPath>
</defs>
</svg>
