<svg width="51" height="41" viewBox="0 0 51 41" fill="none" xmlns="http://www.w3.org/2000/svg">
<path d="M8.70888 -8.42291e-05H14.401C15.0194 -8.42291e-05 14.9035 -0.00682545 15.1584 0.43602C16.0267 1.94467 16.8904 3.45556 17.7495 4.9687C20.1942 9.24677 22.6386 13.525 25.0826 17.8034C25.4149 18.3847 25.3641 18.3707 25.6908 17.7988C28.9638 12.0694 32.2375 6.34028 35.5119 0.611291C35.916 -0.0949797 35.7063 0.00613842 36.5298 0.00510131C40.3245 -8.4229e-05 44.1193 -0.00181274 47.914 -8.42291e-05H48.3242C48.7124 -8.42291e-05 48.715 0.0517712 48.7421 0.414759C48.8334 1.63803 48.9324 2.86026 49.0303 4.08301C49.1185 5.18494 49.2108 6.28635 49.2975 7.38879C49.3821 8.47361 49.4611 9.55946 49.5436 10.6448C49.6319 11.7988 49.7209 12.9527 49.8108 14.1067C49.8913 15.1573 49.9688 16.2084 50.0498 17.259C50.1405 18.4304 50.2349 19.6013 50.3257 20.7722C50.4046 21.7885 50.4795 22.8049 50.558 23.8213C50.6513 25.0269 50.7482 26.232 50.84 27.4382C50.8938 28.1444 50.9277 28.8523 50.9964 29.557C51.0246 29.8474 50.9205 29.9869 50.6728 30.117C48.4893 31.2635 46.314 32.4236 44.1351 33.5794C41.1267 35.1759 38.1161 36.7721 35.1032 38.3683C34.9822 38.4326 34.8612 38.4979 34.7366 38.5534C34.6991 38.57 34.6258 38.5731 34.6084 38.5534C34.5959 38.5323 34.5879 38.5088 34.5848 38.4845C34.5817 38.4601 34.5836 38.4354 34.5904 38.4118C34.6325 38.2625 34.6848 38.1162 34.734 37.969C36.9561 31.346 39.1769 24.723 41.3963 18.1C41.9494 16.4486 42.4964 14.7946 43.0372 13.138C43.1658 12.7445 43.2711 12.3437 43.3526 11.9376C43.4023 11.6661 43.4215 11.3899 43.41 11.1141C43.4039 10.8745 43.2295 10.7921 43.0106 10.903C42.9048 10.9587 42.8052 11.0258 42.7137 11.1032C42.4237 11.346 42.1811 11.6415 41.9983 11.9744C40.6524 14.3597 39.302 16.7435 37.9472 19.1257C33.893 26.2936 29.8386 33.4617 25.7841 40.6302C25.7328 40.7199 25.6856 40.8122 25.6303 40.8998C25.5487 41.031 25.4913 41.0331 25.4123 40.9066C25.34 40.7899 25.2739 40.6686 25.2072 40.5488C20.7458 32.7013 16.2845 24.8539 11.8231 17.0064C11.5667 16.5579 11.2919 16.1202 11.0026 15.6919C10.7714 15.347 10.4898 15.0427 10.1247 14.8347C9.66833 14.5754 9.45244 14.6755 9.30988 15.1925C9.1945 15.611 9.26527 16.0129 9.38321 16.4158C9.61568 17.2109 9.84576 18.006 10.0734 18.8011C11.3643 23.3298 12.6544 27.8594 13.9435 32.3898C14.4348 34.1156 14.9271 35.841 15.4204 37.5661C15.4584 37.6983 15.4963 37.8316 15.523 37.9664C15.5414 38.0639 15.4717 38.0893 15.3994 38.0582C15.2737 38.0063 15.1532 37.9379 15.0317 37.8746C10.1707 35.342 5.3109 32.8094 0.45229 30.2767C-0.0410239 30.0175 -0.0230759 30.1284 0.0199993 29.5404C0.10256 28.4551 0.19589 27.3708 0.284091 26.2859C0.365797 25.2865 0.446649 24.2878 0.526646 23.2897C0.619975 22.1538 0.713305 21.0176 0.806634 19.8813C0.886118 18.8997 0.960474 17.918 1.0415 16.9364C1.13226 15.8174 1.22713 14.6983 1.31738 13.5793C1.39635 12.5977 1.47122 11.6155 1.54763 10.6344C1.63891 9.49775 1.7348 8.3616 1.82608 7.22493C1.90813 6.20908 1.98556 5.19272 2.06812 4.17687C2.17273 2.88567 2.27905 1.59447 2.38708 0.30327C2.41016 0.0517712 2.44503 0.0237693 2.70963 0.011324C2.84604 0.00510131 2.98296 0.011324 3.11987 0.011324H8.70939L8.70888 -8.42291e-05Z" fill="#322637"/>
</svg>
