<svg width="51" height="41" viewBox="0 0 51 41" fill="none" xmlns="http://www.w3.org/2000/svg">
<path d="M8.70888 -0.00032837H14.401C15.0194 -0.00032837 14.9035 -0.00706959 15.1584 0.435776C16.0267 1.94442 16.8904 3.45532 17.7495 4.96846C20.1942 9.24653 22.6386 13.5248 25.0826 17.8032C25.4149 18.3845 25.3641 18.3705 25.6908 17.7985C28.9638 12.0692 32.2375 6.34003 35.5119 0.611047C35.916 -0.0952238 35.7063 0.00589428 36.5298 0.00485717C40.3245 -0.00032837 44.1193 -0.00205688 47.914 -0.00032837H48.3242C48.7124 -0.00032837 48.715 0.051527 48.7421 0.414515C48.8334 1.63778 48.9324 2.86002 49.0303 4.08277C49.1185 5.18469 49.2108 6.2861 49.2975 7.38855C49.3821 8.47337 49.4611 9.55922 49.5436 10.6446C49.6319 11.7985 49.7209 12.9525 49.8108 14.1064C49.8913 15.157 49.9688 16.2081 50.0498 17.2587C50.1405 18.4301 50.2349 19.601 50.3257 20.7719C50.4046 21.7883 50.4795 22.8046 50.558 23.821C50.6513 25.0267 50.7482 26.2318 50.84 27.4379C50.8938 28.1442 50.9277 28.852 50.9964 29.5567C51.0246 29.8471 50.9205 29.9866 50.6728 30.1168C48.4893 31.2633 46.314 32.4233 44.1351 33.5792C41.1267 35.1756 38.1161 36.7719 35.1032 38.368C34.9822 38.4323 34.8612 38.4977 34.7366 38.5531C34.6991 38.5697 34.6258 38.5728 34.6084 38.5531C34.5959 38.5321 34.5879 38.5086 34.5848 38.4842C34.5817 38.4599 34.5836 38.4352 34.5904 38.4116C34.6325 38.2622 34.6848 38.116 34.734 37.9687C36.9561 31.3458 39.1769 24.7228 41.3963 18.0998C41.9494 16.4484 42.4964 14.7944 43.0372 13.1378C43.1658 12.7443 43.2711 12.3434 43.3526 11.9373C43.4023 11.6659 43.4215 11.3896 43.41 11.1138C43.4039 10.8743 43.2295 10.7918 43.0106 10.9028C42.9048 10.9585 42.8052 11.0256 42.7137 11.103C42.4237 11.3458 42.1811 11.6413 41.9983 11.9741C40.6524 14.3595 39.302 16.7433 37.9472 19.1255C33.893 26.2933 29.8386 33.4615 25.7841 40.63C25.7328 40.7197 25.6856 40.812 25.6303 40.8996C25.5487 41.0308 25.4913 41.0329 25.4123 40.9063C25.34 40.7897 25.2739 40.6683 25.2072 40.5485C20.7458 32.7011 16.2845 24.8536 11.8231 17.0062C11.5667 16.5576 11.2919 16.12 11.0026 15.6916C10.7714 15.3468 10.4898 15.0424 10.1247 14.8345C9.66833 14.5752 9.45244 14.6753 9.30988 15.1923C9.1945 15.6107 9.26527 16.0126 9.38321 16.4155C9.61568 17.2107 9.84576 18.0058 10.0734 18.8009C11.3643 23.3296 12.6544 27.8592 13.9435 32.3896C14.4348 34.1154 14.9271 35.8408 15.4204 37.5658C15.4584 37.698 15.4963 37.8313 15.523 37.9661C15.5414 38.0636 15.4717 38.089 15.3994 38.0579C15.2737 38.0061 15.1532 37.9376 15.0317 37.8744C10.1707 35.3417 5.3109 32.8091 0.45229 30.2765C-0.0410239 30.0172 -0.0230759 30.1282 0.0199993 29.5401C0.10256 28.4548 0.19589 27.3705 0.284091 26.2857C0.365797 25.2863 0.446649 24.2875 0.526646 23.2895C0.619975 22.1535 0.713305 21.0174 0.806634 19.881C0.886118 18.8994 0.960474 17.9178 1.0415 16.9362C1.13226 15.8171 1.22713 14.6981 1.31738 13.5791C1.39635 12.5974 1.47122 11.6153 1.54763 10.6342C1.63891 9.49751 1.7348 8.36136 1.82608 7.22469C1.90813 6.20884 1.98556 5.19247 2.06812 4.17663C2.17273 2.88543 2.27905 1.59423 2.38708 0.303026C2.41016 0.051527 2.44503 0.0235251 2.70963 0.0110798C2.84604 0.00485717 2.98296 0.0110798 3.11987 0.0110798H8.70939L8.70888 -0.00032837Z" fill="#CCCCCC"/>
</svg>
