<svg width="77" height="129" viewBox="0 0 77 129" fill="none" xmlns="http://www.w3.org/2000/svg">
<path d="M100.43 100.174C100.887 97.2004 101.063 94.5052 100.975 91.9356V91.8973L100.973 91.8398C100.973 91.8398 100.973 91.8377 100.973 91.8356C100.973 91.8356 100.973 91.8335 100.973 91.8313C100.833 87.6322 99.9999 83.7777 98.2757 79.334C98.2757 79.3318 98.2757 79.3318 98.2736 79.3297L97.8732 78.3002L97.8559 78.298C97.1822 76.6537 96.4503 75.037 95.6797 73.3438C91.9514 65.1625 87.728 55.89 87.9389 37.2834C88.0702 25.6794 84.7294 16.5069 78.0111 10.0253C67.3708 -0.240576 52.167 -0.0278572 50.9917 0.00617813C49.7626 -0.02573 34.5975 -0.219303 23.9809 10.0253C17.2626 16.5069 13.9239 25.6773 14.0574 37.2834C14.2683 55.8858 10.0428 65.1604 6.31661 73.3416C5.53307 75.0604 4.79042 76.7005 4.10805 78.3703L4.09082 78.3725L3.68829 79.4127C3.68829 79.4148 3.68829 79.4169 3.68613 79.4169V79.4191C1.98343 83.8224 1.16114 87.6514 1.02122 91.8292C1.02122 91.8313 1.02122 91.8313 1.02122 91.8334C1.02122 91.8334 1.02122 91.8356 1.02122 91.8377L1.01907 91.8951V91.9356C0.930809 94.5031 1.10732 97.1983 1.56367 100.176C4.13603 116.839 11.3968 130.895 15.4931 137.792C17.3422 140.9 17.1743 144.792 15.0669 147.711L11.5453 152.595C10.6498 153.837 10.5314 155.452 11.2375 156.805C11.9435 158.16 13.3405 159 14.884 159H50.9938H87.108C88.6471 159 90.042 158.16 90.7481 156.809C91.4563 155.454 91.34 153.842 90.4445 152.595L86.9186 147.711C84.8155 144.792 84.6476 140.9 86.4924 137.792C90.5909 130.902 97.8538 116.854 100.43 100.174ZM9.66391 74.8328C13.3535 66.7303 17.9471 56.6473 17.7275 37.2429C17.607 26.6835 20.5647 18.4065 26.5209 12.646C36.2098 3.27357 50.7829 3.62669 50.9271 3.63732L50.9917 1.82281L51.0563 3.63732C51.2026 3.62881 65.7155 3.23953 75.4431 12.6248C81.4144 18.3852 84.3828 26.6686 84.2623 37.2429C84.0427 56.6494 88.6364 66.7324 92.3281 74.8349C92.7887 75.8454 93.2365 76.8281 93.6648 77.8024C89.3812 77.2174 85.3623 76.4006 81.6921 75.354C65.5368 70.7528 58.4655 62.6375 55.3701 56.626C55.0988 56.1091 54.8535 55.5965 54.6403 55.1008C54.4165 54.5882 54.0785 54.1542 53.6652 53.8096C66.1116 53.5607 76.1577 43.4863 76.1577 31.1315C76.1577 18.6192 65.8575 8.44055 53.1959 8.44055H49.0457C36.3841 8.44055 26.0839 18.6192 26.0839 31.1315C26.0839 43.6437 36.3841 53.8224 49.0457 53.8224H49.1189C48.6906 54.1798 48.3418 54.635 48.118 55.171C47.9221 55.6411 47.7004 56.1219 47.4571 56.609C44.4047 62.7971 37.1935 71.123 20.1815 75.6475C16.5372 76.6197 12.5398 77.3791 8.27763 77.9173C8.72107 76.9047 9.18388 75.8837 9.66391 74.8328ZM51.4523 21.1591C51.6999 20.7592 51.9302 20.6316 52.0056 20.6316C52.0788 20.6316 52.3091 20.7592 52.5588 21.1591C55.3141 25.5901 60.9798 30.84 72.4725 31.6526C72.1905 41.9207 63.6554 50.1891 53.1981 50.1891H49.0479C38.6185 50.1891 30.1028 41.9675 29.7757 31.7399C42.4545 31.3655 48.5592 25.8113 51.4523 21.1591ZM30.0017 28.1023C31.4741 19.0255 39.4516 12.0674 49.0457 12.0674H53.1959C62.7492 12.0674 70.6987 18.9681 72.2185 27.9896C62.62 27.1685 57.9424 22.8864 55.6887 19.2595C54.7953 17.8237 53.4543 17.0004 52.0056 17.0004C50.5569 17.0004 49.2136 17.8237 48.3225 19.2595C45.9309 23.1055 40.8185 27.6896 30.0017 28.1023ZM5.19511 97.0791C4.91527 95.2795 4.74521 93.5373 4.69355 91.9015C4.8141 88.4895 5.44696 85.3178 6.72776 81.7569C11.9177 81.1953 16.761 80.3189 21.1416 79.151C39.486 74.2712 47.3732 65.0647 50.757 58.2087C50.9874 57.7513 51.2005 57.2897 51.3985 56.8345C51.6116 57.3131 51.8506 57.8003 52.1046 58.2853C55.5251 64.9243 63.2572 73.8798 80.6782 78.8426C85.1061 80.1061 89.999 81.0549 95.2362 81.6654C96.5407 85.2689 97.1843 88.4682 97.3049 91.9036C97.2532 93.5033 97.0832 95.2476 96.8033 97.077L96.7947 97.1302C92.524 98.3321 88.1262 99.3701 83.7069 100.223C57.2256 105.35 33.4975 102.982 18.2528 100.091L18.2313 100.087C13.8098 99.251 9.43358 98.2491 5.20372 97.1004L5.19511 97.0791ZM81.5737 104.305C77.3675 118.581 65.1386 128.328 50.9938 128.328C36.791 128.328 24.5405 118.524 20.3688 104.165C20.4915 104.186 20.6163 104.205 20.739 104.227C20.9414 104.261 21.1459 104.295 21.3504 104.331C21.7185 104.392 22.093 104.454 22.4676 104.514C22.6613 104.546 22.8507 104.575 23.0466 104.607C23.5762 104.69 24.1122 104.773 24.6568 104.854C24.7127 104.863 24.7687 104.871 24.8268 104.88C25.3865 104.963 25.9548 105.043 26.5317 105.122C26.7319 105.15 26.9321 105.175 27.1344 105.203C27.5434 105.258 27.9567 105.314 28.3743 105.367C28.6025 105.397 28.8307 105.424 29.061 105.454C29.4851 105.507 29.9156 105.558 30.3482 105.609C30.5571 105.633 30.7637 105.658 30.9725 105.682C31.5989 105.752 32.2318 105.822 32.8732 105.888C33.0024 105.901 33.1359 105.913 33.2672 105.926C33.7903 105.979 34.3176 106.03 34.8515 106.079C35.0926 106.101 35.338 106.124 35.5834 106.145C36.0203 106.184 36.4616 106.222 36.9072 106.258C37.1655 106.279 37.4217 106.301 37.6822 106.32C38.1579 106.356 38.6401 106.39 39.1244 106.424C39.3418 106.439 39.5571 106.454 39.7766 106.469C40.459 106.513 41.15 106.556 41.8453 106.592C42.0476 106.603 42.2543 106.611 42.4588 106.622C42.9732 106.647 43.4899 106.673 44.0108 106.694C44.2863 106.705 44.5619 106.715 44.8396 106.726C45.3088 106.743 45.7802 106.76 46.2538 106.773C46.5358 106.781 46.8156 106.79 47.0998 106.798C47.6401 106.811 48.1847 106.822 48.7315 106.832C48.9403 106.837 49.1448 106.841 49.3536 106.843C50.0897 106.852 50.8324 106.858 51.5793 106.858C51.6396 106.858 51.6977 106.858 51.7559 106.858C52.1605 106.858 52.5674 106.854 52.9742 106.852C53.1529 106.849 53.3294 106.849 53.5059 106.849C54.085 106.843 54.6662 106.835 55.2495 106.822C55.3292 106.822 55.4088 106.82 55.4906 106.817C56.836 106.79 58.2007 106.745 59.5784 106.686C59.7205 106.679 59.8647 106.671 60.0089 106.664C60.5449 106.641 61.0852 106.613 61.6255 106.583C61.8451 106.571 62.069 106.556 62.2907 106.543C62.7556 106.515 63.2228 106.488 63.692 106.456C63.9503 106.439 64.213 106.418 64.4713 106.401C64.9061 106.369 65.3409 106.337 65.7779 106.303C66.0599 106.279 66.3419 106.256 66.6239 106.233C67.0436 106.196 67.4634 106.16 67.8853 106.122C68.1802 106.094 68.4751 106.064 68.7722 106.037C69.1855 105.996 69.5988 105.956 70.0121 105.913C70.3156 105.882 70.6212 105.847 70.9248 105.816C71.3338 105.771 71.7449 105.724 72.1561 105.675C72.466 105.639 72.7782 105.601 73.0903 105.562C73.4993 105.514 73.9083 105.46 74.3194 105.407C74.6358 105.367 74.9523 105.324 75.2687 105.282C75.6799 105.226 76.091 105.167 76.5 105.109C76.8186 105.063 77.1393 105.016 77.4601 104.969C77.8734 104.907 78.2867 104.843 78.7 104.777C79.0207 104.729 79.3414 104.678 79.6643 104.624C80.0841 104.556 80.5038 104.484 80.9236 104.414C81.141 104.38 81.3563 104.346 81.5737 104.305ZM83.9286 149.819L87.4524 154.701C87.5794 154.877 87.5407 155.039 87.4847 155.145C87.4309 155.25 87.3211 155.373 87.108 155.373H50.9938H14.884C14.6687 155.373 14.5568 155.248 14.5051 155.145C14.4513 155.041 14.4125 154.88 14.5395 154.703L18.0591 149.819C21.0081 145.737 21.2449 140.293 18.6618 135.952C14.8022 129.457 8.04945 116.407 5.40606 100.906C8.99014 101.85 12.6646 102.691 16.38 103.42C18.2958 111.244 22.5558 118.319 28.4755 123.446C34.8149 128.936 42.8118 131.959 50.996 131.959C59.1543 131.959 67.134 128.951 73.4648 123.486C79.378 118.385 83.6445 111.338 85.5754 103.544C89.2865 102.799 92.9717 101.929 96.5816 100.944C93.9296 116.443 87.1834 129.468 83.3259 135.952C80.7492 140.295 80.986 145.737 83.9286 149.819Z" fill="url(#paint0_linear_3141_8155)"/>
<path d="M42.015 40.5516C43.6811 40.5516 45.033 39.2157 45.033 37.5693C45.033 35.9228 43.6811 34.5869 42.015 34.5869C40.3489 34.5869 38.9971 35.9228 38.9971 37.5693C38.9949 39.2157 40.3468 40.5516 42.015 40.5516ZM60.7943 40.5516C62.4604 40.5516 63.8123 39.2157 63.8123 37.5693C63.8123 35.9228 62.4604 34.5869 60.7943 34.5869C59.1282 34.5869 57.7764 35.9228 57.7764 37.5693C57.7764 39.2157 59.1282 40.5516 60.7943 40.5516Z" fill="#FF58DA"/>
<defs>
<linearGradient id="paint0_linear_3141_8155" x1="15.4971" y1="5.92922" x2="87.1154" y2="152.365" gradientUnits="userSpaceOnUse">
<stop stop-color="#FF58DA"/>
<stop offset="1" stop-color="#FF58DA" stop-opacity="0"/>
</linearGradient>
</defs>
</svg>
