<svg width="76" height="129" viewBox="0 0 76 129" fill="none" xmlns="http://www.w3.org/2000/svg">
<path d="M99.4334 100.174C99.8897 97.2004 100.066 94.5052 99.978 91.9356V91.8973L99.9759 91.8398C99.9759 91.8398 99.9759 91.8377 99.9759 91.8356C99.9759 91.8356 99.9759 91.8334 99.9759 91.8313C99.8359 87.6322 99.0029 83.7777 97.2786 79.334C97.2786 79.3318 97.2786 79.3318 97.2765 79.3297L96.8761 78.3002L96.8589 78.298C96.1851 76.6537 95.4532 75.037 94.6826 73.3438C90.9543 65.1625 86.7309 55.89 86.9419 37.2834C87.0732 25.6794 83.7323 16.5069 77.0141 10.0253C66.3738 -0.240576 51.1699 -0.0278572 49.9946 0.00617814C48.7655 -0.02573 33.6004 -0.219303 22.9838 10.0253C16.2655 16.5069 12.9268 25.6773 13.0603 37.2834C13.2712 55.8858 9.04569 65.1604 5.31954 73.3416C4.536 75.0604 3.79335 76.7005 3.11098 78.3703L3.09375 78.3725L2.69122 79.4127C2.69122 79.4148 2.69122 79.4169 2.68906 79.4169V79.4191C0.986357 83.8224 0.164066 87.6514 0.0241466 91.8292C0.0241466 91.8313 0.0241466 91.8313 0.0241466 91.8334C0.0241466 91.8334 0.0241466 91.8356 0.0241466 91.8377L0.0219951 91.8951V91.9356C-0.0662615 94.5031 0.110248 97.1983 0.566599 100.176C3.13896 116.839 10.3997 130.895 14.4961 137.792C16.3452 140.9 16.1773 144.792 14.0699 147.711L10.5482 152.595C9.65273 153.837 9.53434 155.452 10.2404 156.805C10.9464 158.16 12.3435 159 13.8869 159H49.9968H86.111C87.6501 159 89.045 158.16 89.751 156.809C90.4592 155.454 90.343 153.842 89.4475 152.595L85.9215 147.711C83.8184 144.792 83.6505 140.9 85.4953 137.792C89.5938 130.902 96.8567 116.854 99.4334 100.174ZM8.66684 74.8328C12.3564 66.7303 16.95 56.6473 16.7305 37.2429C16.6099 26.6835 19.5676 18.4065 25.5239 12.646C35.2127 3.27357 49.7858 3.62669 49.93 3.63732L49.9946 1.82281L50.0592 3.63732C50.2056 3.62881 64.7184 3.23953 74.446 12.6248C80.4173 18.3852 83.3858 26.6686 83.2652 37.2429C83.0457 56.6494 87.6393 66.7324 91.331 74.8349C91.7917 75.8454 92.2394 76.8281 92.6678 77.8024C88.3841 77.2174 84.3652 76.4006 80.695 75.354C64.5397 70.7528 57.4684 62.6375 54.373 56.626C54.1018 56.1091 53.8564 55.5965 53.6433 55.1008C53.4194 54.5882 53.0814 54.1542 52.6681 53.8096C65.1145 53.5607 75.1607 43.4863 75.1607 31.1315C75.1607 18.6192 64.8605 8.44055 52.1989 8.44055H48.0487C35.3871 8.44055 25.0869 18.6192 25.0869 31.1315C25.0869 43.6437 35.3871 53.8224 48.0487 53.8224H48.1218C47.6935 54.1798 47.3448 54.635 47.1209 55.171C46.925 55.6411 46.7033 56.1219 46.46 56.609C43.4077 62.7971 36.1964 71.123 19.1844 75.6475C15.5401 76.6197 11.5427 77.3791 7.28056 77.9173C7.724 76.9047 8.18681 75.8836 8.66684 74.8328ZM50.4553 21.1591C50.7028 20.7592 50.9332 20.6316 51.0085 20.6316C51.0817 20.6316 51.312 20.7592 51.5617 21.1591C54.317 25.5901 59.9827 30.84 71.4754 31.6526C71.1934 41.9207 62.6584 50.1891 52.201 50.1891H48.0508C37.6215 50.1891 29.1058 41.9675 28.7786 31.7399C41.4574 31.3655 47.5622 25.8113 50.4553 21.1591ZM29.0046 28.1023C30.477 19.0255 38.4545 12.0674 48.0487 12.0674H52.1989C61.7521 12.0674 69.7017 18.9681 71.2214 27.9896C61.623 27.1685 56.9454 22.8864 54.6916 19.2595C53.7983 17.8237 52.4572 17.0004 51.0085 17.0004C49.5598 17.0004 48.2166 17.8237 47.3254 19.2595C44.9338 23.1055 39.8214 27.6896 29.0046 28.1023ZM4.19804 97.0791C3.9182 95.2795 3.74814 93.5373 3.69648 91.9015C3.81703 88.4895 4.44989 85.3178 5.73069 81.7569C10.9206 81.1953 15.764 80.3189 20.1445 79.151C38.489 74.2712 46.3761 65.0647 49.76 58.2087C49.9903 57.7513 50.2034 57.2897 50.4015 56.8345C50.6146 57.3131 50.8535 57.8003 51.1075 58.2853C54.528 64.9243 62.2601 73.8798 79.6811 78.8426C84.109 80.1061 89.0019 81.0549 94.2392 81.6654C95.5436 85.2689 96.1873 88.4682 96.3078 91.9036C96.2562 93.5033 96.0861 95.2476 95.8063 97.077L95.7977 97.1302C91.5269 98.3321 87.1291 99.3701 82.7098 100.223C56.2285 105.35 32.5004 102.982 17.2557 100.091L17.2342 100.087C12.8127 99.251 8.43651 98.2491 4.20665 97.1004L4.19804 97.0791ZM80.5766 104.305C76.3704 118.581 64.1415 128.328 49.9968 128.328C35.7939 128.328 23.5435 118.524 19.3717 104.165C19.4944 104.186 19.6193 104.205 19.742 104.227C19.9443 104.261 20.1488 104.295 20.3533 104.331C20.7214 104.392 21.096 104.454 21.4705 104.514C21.6642 104.546 21.8537 104.575 22.0496 104.607C22.5791 104.69 23.1151 104.773 23.6597 104.854C23.7157 104.863 23.7716 104.871 23.8298 104.88C24.3894 104.963 24.9577 105.043 25.5346 105.122C25.7348 105.15 25.935 105.175 26.1373 105.203C26.5463 105.258 26.9596 105.314 27.3772 105.367C27.6054 105.397 27.8336 105.424 28.0639 105.454C28.488 105.507 28.9185 105.558 29.3512 105.609C29.56 105.633 29.7666 105.658 29.9754 105.682C30.6018 105.752 31.2347 105.822 31.8762 105.888C32.0053 105.901 32.1388 105.913 32.2701 105.926C32.7932 105.979 33.3206 106.03 33.8544 106.079C34.0955 106.101 34.3409 106.124 34.5863 106.145C35.0233 106.184 35.4646 106.222 35.9102 106.258C36.1685 106.279 36.4246 106.301 36.6851 106.32C37.1608 106.356 37.643 106.39 38.1273 106.424C38.3447 106.439 38.56 106.454 38.7796 106.469C39.4619 106.513 40.1529 106.556 40.8482 106.592C41.0506 106.603 41.2572 106.611 41.4617 106.622C41.9762 106.647 42.4928 106.673 43.0137 106.694C43.2893 106.705 43.5648 106.715 43.8425 106.726C44.3117 106.743 44.7832 106.76 45.2567 106.773C45.5387 106.781 45.8186 106.79 46.1027 106.798C46.643 106.811 47.1876 106.822 47.7344 106.832C47.9432 106.837 48.1477 106.841 48.3565 106.843C49.0927 106.852 49.8353 106.858 50.5823 106.858C50.6425 106.858 50.7007 106.858 50.7588 106.858C51.1635 106.858 51.5703 106.854 51.9772 106.852C52.1558 106.849 52.3323 106.849 52.5089 106.849C53.0879 106.843 53.6691 106.835 54.2525 106.822C54.3321 106.822 54.4118 106.82 54.4936 106.817C55.8389 106.79 57.2037 106.745 58.5813 106.686C58.7234 106.679 58.8676 106.671 59.0119 106.664C59.5479 106.641 60.0882 106.613 60.6285 106.583C60.848 106.571 61.0719 106.556 61.2936 106.543C61.7586 106.515 62.2257 106.488 62.695 106.456C62.9533 106.439 63.2159 106.418 63.4742 106.401C63.909 106.369 64.3438 106.337 64.7808 106.303C65.0628 106.279 65.3448 106.256 65.6268 106.233C66.0466 106.196 66.4663 106.16 66.8882 106.122C67.1831 106.094 67.478 106.064 67.7751 106.037C68.1884 105.996 68.6017 105.956 69.015 105.913C69.3185 105.882 69.6242 105.847 69.9277 105.816C70.3367 105.771 70.7478 105.724 71.159 105.675C71.469 105.639 71.7811 105.601 72.0932 105.562C72.5022 105.514 72.9112 105.46 73.3223 105.407C73.6388 105.367 73.9552 105.324 74.2717 105.282C74.6828 105.226 75.0939 105.167 75.5029 105.109C75.8215 105.063 76.1423 105.016 76.463 104.969C76.8763 104.907 77.2896 104.843 77.7029 104.777C78.0236 104.729 78.3444 104.678 78.6673 104.624C79.087 104.556 79.5068 104.484 79.9265 104.414C80.1439 104.38 80.3592 104.346 80.5766 104.305ZM82.9316 149.819L86.4554 154.701C86.5824 154.877 86.5436 155.039 86.4876 155.145C86.4338 155.25 86.3241 155.373 86.111 155.373H49.9968H13.8869C13.6716 155.373 13.5597 155.248 13.508 155.145C13.4542 155.041 13.4155 154.88 13.5425 154.703L17.062 149.819C20.011 145.737 20.2478 140.293 17.6647 135.952C13.8051 129.457 7.05238 116.407 4.40899 100.906C7.99307 101.85 11.6676 102.691 15.3829 103.42C17.2988 111.244 21.5588 118.319 27.4784 123.446C33.8178 128.936 41.8147 131.959 49.9989 131.959C58.1573 131.959 66.137 128.951 72.4678 123.486C78.381 118.385 82.6474 111.338 84.5783 103.544C88.2894 102.799 91.9746 101.929 95.5845 100.944C92.9325 116.443 86.1863 129.468 82.3288 135.952C79.7522 140.295 79.989 145.737 82.9316 149.819Z" fill="url(#paint0_linear_72_199)"/>
<path d="M41.0179 40.5518C42.6841 40.5518 44.0359 39.2159 44.0359 37.5694C44.0359 35.923 42.6841 34.5871 41.0179 34.5871C39.3518 34.5871 38 35.923 38 37.5694C37.9978 39.2159 39.3497 40.5518 41.0179 40.5518ZM59.7972 40.5518C61.4634 40.5518 62.8152 39.2159 62.8152 37.5694C62.8152 35.923 61.4634 34.5871 59.7972 34.5871C58.1311 34.5871 56.7793 35.923 56.7793 37.5694C56.7793 39.2159 58.1311 40.5518 59.7972 40.5518Z" fill="#831387"/>
<defs>
<linearGradient id="paint0_linear_72_199" x1="14.5" y1="5.92922" x2="86.1183" y2="152.365" gradientUnits="userSpaceOnUse">
<stop stop-color="#AE1FB3"/>
<stop offset="1" stop-color="#6A0D6D" stop-opacity="0"/>
</linearGradient>
</defs>
</svg>
