<svg width="77" height="129" viewBox="0 0 77 129" fill="none" xmlns="http://www.w3.org/2000/svg">
<path d="M100.431 100.174C100.887 97.2004 101.064 94.5052 100.975 91.9356V91.8973L100.973 91.8398C100.973 91.8398 100.973 91.8377 100.973 91.8356C100.973 91.8356 100.973 91.8334 100.973 91.8313C100.833 87.6322 100 83.7777 98.2759 79.334C98.2759 79.3318 98.2759 79.3318 98.2738 79.3297L97.8734 78.3002L97.8562 78.298C97.1824 76.6537 96.4506 75.037 95.6799 73.3438C91.9516 65.1625 87.7282 55.89 87.9392 37.2834C88.0705 25.6794 84.7296 16.5069 78.0114 10.0253C67.3711 -0.240576 52.1673 -0.0278572 50.9919 0.00617814C49.7628 -0.02573 34.5977 -0.219303 23.9811 10.0253C17.2628 16.5069 13.9241 25.6773 14.0576 37.2834C14.2686 55.8858 10.043 65.1604 6.31686 73.3416C5.53331 75.0604 4.79066 76.7005 4.10829 78.3703L4.09107 78.3725L3.68853 79.4127C3.68853 79.4148 3.68853 79.4169 3.68638 79.4169V79.4191C1.98367 83.8224 1.16138 87.6514 1.02146 91.8292C1.02146 91.8313 1.02146 91.8313 1.02146 91.8334C1.02146 91.8334 1.02146 91.8356 1.02146 91.8377L1.01931 91.8951V91.9356C0.931053 94.5031 1.10756 97.1983 1.56391 100.176C4.13627 116.839 11.397 130.895 15.4934 137.792C17.3425 140.9 17.1746 144.792 15.0672 147.711L11.5455 152.595C10.65 153.837 10.5317 155.452 11.2377 156.805C11.9438 158.16 13.3408 159 14.8842 159H50.9941H87.1083C88.6474 159 90.0423 158.16 90.7483 156.809C91.4565 155.454 91.3403 153.842 90.4448 152.595L86.9188 147.711C84.8158 144.792 84.6478 140.9 86.4926 137.792C90.5912 130.902 97.854 116.854 100.431 100.174ZM9.66415 74.8328C13.3537 66.7303 17.9474 56.6473 17.7278 37.2429C17.6072 26.6835 20.5649 18.4065 26.5212 12.646C36.21 3.27357 50.7831 3.62669 50.9273 3.63732L50.9919 1.82281L51.0565 3.63732C51.2029 3.62881 65.7157 3.23953 75.4433 12.6248C81.4146 18.3852 84.3831 26.6686 84.2625 37.2429C84.043 56.6494 88.6366 66.7324 92.3283 74.8349C92.789 75.8454 93.2367 76.8281 93.6651 77.8024C89.3814 77.2174 85.3625 76.4006 81.6923 75.354C65.5371 70.7528 58.4658 62.6375 55.3703 56.626C55.0991 56.1091 54.8537 55.5965 54.6406 55.1008C54.4167 54.5882 54.0788 54.1542 53.6655 53.8096C66.1118 53.5607 76.158 43.4863 76.158 31.1315C76.158 18.6192 65.8578 8.44055 53.1962 8.44055H49.046C36.3844 8.44055 26.0842 18.6192 26.0842 31.1315C26.0842 43.6437 36.3844 53.8224 49.046 53.8224H49.1192C48.6908 54.1798 48.3421 54.635 48.1182 55.171C47.9223 55.6411 47.7006 56.1219 47.4574 56.609C44.405 62.7971 37.1938 71.123 20.1818 75.6475C16.5374 76.6197 12.54 77.3791 8.27788 77.9173C8.72131 76.9047 9.18412 75.8836 9.66415 74.8328ZM51.4526 21.1591C51.7001 20.7592 51.9305 20.6316 52.0058 20.6316C52.079 20.6316 52.3093 20.7592 52.559 21.1591C55.3144 25.5901 60.98 30.84 72.4727 31.6526C72.1907 41.9207 63.6557 50.1891 53.1983 50.1891H49.0481C38.6188 50.1891 30.1031 41.9675 29.7759 31.7399C42.4547 31.3655 48.5595 25.8113 51.4526 21.1591ZM30.0019 28.1023C31.4743 19.0255 39.4518 12.0674 49.046 12.0674H53.1962C62.7494 12.0674 70.699 18.9681 72.2187 27.9896C62.6203 27.1685 57.9427 22.8864 55.6889 19.2595C54.7956 17.8237 53.4545 17.0004 52.0058 17.0004C50.5571 17.0004 49.2139 17.8237 48.3227 19.2595C45.9312 23.1055 40.8187 27.6896 30.0019 28.1023ZM5.19535 97.0791C4.91551 95.2795 4.74546 93.5373 4.6938 91.9015C4.81434 88.4895 5.44721 85.3178 6.728 81.7569C11.9179 81.1953 16.7613 80.3189 21.1418 79.151C39.4863 74.2712 47.3734 65.0647 50.7573 58.2087C50.9876 57.7513 51.2007 57.2897 51.3988 56.8345C51.6119 57.3131 51.8508 57.8003 52.1048 58.2853C55.5253 64.9243 63.2575 73.8798 80.6785 78.8426C85.1063 80.1061 89.9992 81.0549 95.2365 81.6654C96.541 85.2689 97.1846 88.4682 97.3051 91.9036C97.2535 93.5033 97.0834 95.2476 96.8036 97.077L96.795 97.1302C92.5242 98.3321 88.1264 99.3701 83.7072 100.223C57.2259 105.35 33.4977 102.982 18.253 100.091L18.2315 100.087C13.8101 99.251 9.43382 98.2491 5.20396 97.1004L5.19535 97.0791ZM81.5739 104.305C77.3678 118.581 65.1388 128.328 50.9941 128.328C36.7912 128.328 24.5408 118.524 20.369 104.165C20.4917 104.186 20.6166 104.205 20.7393 104.227C20.9416 104.261 21.1461 104.295 21.3506 104.331C21.7187 104.392 22.0933 104.454 22.4678 104.514C22.6616 104.546 22.851 104.575 23.0469 104.607C23.5764 104.69 24.1124 104.773 24.657 104.854C24.713 104.863 24.7689 104.871 24.8271 104.88C25.3867 104.963 25.955 105.043 26.5319 105.122C26.7321 105.15 26.9323 105.175 27.1347 105.203C27.5437 105.258 27.957 105.314 28.3746 105.367C28.6027 105.397 28.8309 105.424 29.0612 105.454C29.4853 105.507 29.9158 105.558 30.3485 105.609C30.5573 105.633 30.7639 105.658 30.9727 105.682C31.5992 105.752 32.232 105.822 32.8735 105.888C33.0026 105.901 33.1361 105.913 33.2674 105.926C33.7905 105.979 34.3179 106.03 34.8517 106.079C35.0928 106.101 35.3382 106.124 35.5836 106.145C36.0206 106.184 36.4619 106.222 36.9075 106.258C37.1658 106.279 37.4219 106.301 37.6824 106.32C38.1581 106.356 38.6403 106.39 39.1246 106.424C39.3421 106.439 39.5573 106.454 39.7769 106.469C40.4593 106.513 41.1502 106.556 41.8455 106.592C42.0479 106.603 42.2545 106.611 42.459 106.622C42.9735 106.647 43.4901 106.673 44.011 106.694C44.2866 106.705 44.5621 106.715 44.8398 106.726C45.3091 106.743 45.7805 106.76 46.2541 106.773C46.536 106.781 46.8159 106.79 47.1 106.798C47.6403 106.811 48.1849 106.822 48.7317 106.832C48.9405 106.837 49.145 106.841 49.3538 106.843C50.09 106.852 50.8326 106.858 51.5796 106.858C51.6399 106.858 51.698 106.858 51.7561 106.858C52.1608 106.858 52.5676 106.854 52.9745 106.852C53.1531 106.849 53.3297 106.849 53.5062 106.849C54.0852 106.843 54.6664 106.835 55.2498 106.822C55.3294 106.822 55.4091 106.82 55.4909 106.817C56.8362 106.79 58.201 106.745 59.5787 106.686C59.7207 106.679 59.8649 106.671 60.0092 106.664C60.5452 106.641 61.0855 106.613 61.6258 106.583C61.8453 106.571 62.0692 106.556 62.2909 106.543C62.7559 106.515 63.223 106.488 63.6923 106.456C63.9506 106.439 64.2132 106.418 64.4715 106.401C64.9063 106.369 65.3412 106.337 65.7781 106.303C66.0601 106.279 66.3421 106.256 66.6241 106.233C67.0439 106.196 67.4636 106.16 67.8855 106.122C68.1804 106.094 68.4753 106.064 68.7724 106.037C69.1857 105.996 69.599 105.956 70.0123 105.913C70.3158 105.882 70.6215 105.847 70.925 105.816C71.334 105.771 71.7452 105.724 72.1563 105.675C72.4663 105.639 72.7784 105.601 73.0905 105.562C73.4995 105.514 73.9085 105.46 74.3197 105.407C74.6361 105.367 74.9525 105.324 75.269 105.282C75.6801 105.226 76.0913 105.167 76.5002 105.109C76.8188 105.063 77.1396 105.016 77.4603 104.969C77.8736 104.907 78.2869 104.843 78.7002 104.777C79.0209 104.729 79.3417 104.678 79.6646 104.624C80.0843 104.556 80.5041 104.484 80.9238 104.414C81.1413 104.38 81.3565 104.346 81.5739 104.305ZM83.9289 149.819L87.4527 154.701C87.5797 154.877 87.5409 155.039 87.485 155.145C87.4311 155.25 87.3214 155.373 87.1083 155.373H50.9941H14.8842C14.6689 155.373 14.557 155.248 14.5054 155.145C14.4515 155.041 14.4128 154.88 14.5398 154.703L18.0593 149.819C21.0084 145.737 21.2451 140.293 18.662 135.952C14.8024 129.457 8.0497 116.407 5.40631 100.906C8.99039 101.85 12.6649 102.691 16.3803 103.42C18.2961 111.244 22.5561 118.319 28.4757 123.446C34.8151 128.936 42.812 131.959 50.9962 131.959C59.1546 131.959 67.1343 128.951 73.4651 123.486C79.3783 118.385 83.6447 111.338 85.5756 103.544C89.2867 102.799 92.972 101.929 96.5819 100.944C93.9299 116.443 87.1836 129.468 83.3261 135.952C80.7495 140.295 80.9863 145.737 83.9289 149.819Z" fill="url(#paint0_linear_418_35)"/>
<path d="M42.0153 40.5517C43.6814 40.5517 45.0332 39.2158 45.0332 37.5694C45.0332 35.9229 43.6814 34.587 42.0153 34.587C40.3492 34.587 38.9973 35.9229 38.9973 37.5694C38.9952 39.2158 40.347 40.5517 42.0153 40.5517ZM60.7946 40.5517C62.4607 40.5517 63.8125 39.2158 63.8125 37.5694C63.8125 35.9229 62.4607 34.587 60.7946 34.587C59.1284 34.587 57.7766 35.9229 57.7766 37.5694C57.7766 39.2158 59.1284 40.5517 60.7946 40.5517Z" fill="#75A8A8"/>
<defs>
<linearGradient id="paint0_linear_418_35" x1="15.4973" y1="5.92922" x2="87.1157" y2="152.365" gradientUnits="userSpaceOnUse">
<stop stop-color="#75A8A8"/>
<stop offset="1" stop-color="#517B7B" stop-opacity="0"/>
</linearGradient>
</defs>
</svg>
